<?xml version="1.0" encoding="UTF-8" standalone="no"?>
<!DOCTYPE svg PUBLIC "-//W3C//DTD SVG 1.1//EN" "http://www.w3.org/Graphics/SVG/1.1/DTD/svg11.dtd">
<svg version="1.1" xmlns="http://www.w3.org/2000/svg" xmlns:xlink="http://www.w3.org/1999/xlink" preserveAspectRatio="xMidYMid meet" viewBox="0 0 250 250" width="250" height="250"><defs><path d="M102.94 141L102.94 211.31L79.5 211.31L80.85 31.63L126.81 31.63C126.94 31.63 127.02 31.63 127.05 31.63C142.8 31.63 156.6 42.16 160.76 57.35C161.91 61.58 159.35 52.2 160.76 57.35C164.54 71.19 164.54 85.81 160.76 99.65C159.35 104.8 161.65 96.39 160.42 100.87C156.46 115.34 143.31 125.38 128.31 125.38C127.59 125.38 133.39 125.38 128.31 125.38C126.76 125.38 125.83 127.1 126.68 128.4C133.93 139.45 152.06 167.09 181.06 211.31L157.63 211.31L102.94 141" id="a1fOVQHNj3"></path><path d="M108.38 140.63L108.38 210.94L84.94 210.94L86.29 31.25L132.24 31.25C132.38 31.25 132.46 31.25 132.49 31.25C148.24 31.25 162.04 41.78 166.19 56.97C167.35 61.2 164.79 51.83 166.19 56.97C169.98 70.82 169.98 85.43 166.19 99.28C164.79 104.42 167.08 96.02 165.86 100.49C161.9 114.96 148.75 125 133.75 125C133.03 125 138.83 125 133.75 125C132.2 125 131.27 126.72 132.12 128.02C139.37 139.08 157.5 166.72 186.5 210.94L163.06 210.94L108.38 140.63" id="b2Rw6Mpylu"></path><path d="M109.37 105.47C118.92 105.47 124.89 105.47 127.28 105.47C138.97 105.47 148.44 96 148.44 84.31C148.44 77.61 148.44 79.95 148.44 73.57C148.44 60.98 138.23 50.78 125.65 50.78C123.48 50.78 118.05 50.78 109.37 50.78L109.37 105.47Z" id="hkTN1UPpG"></path><path d="" id="g4RGFbOZs"></path><path d="" id="dxMYsawxD"></path><path d="M185.83 210.94L164.06 195.31L185.83 210.94Z" id="cL29CDUYT"></path></defs><g><g><g><use xlink:href="#a1fOVQHNj3" opacity="1" fill="#0f1214" fill-opacity="1"></use><g><use xlink:href="#a1fOVQHNj3" opacity="1" fill-opacity="0" stroke="#f4f4f4" stroke-width="1" stroke-opacity="1"></use></g></g><g><use xlink:href="#b2Rw6Mpylu" opacity="1" fill="#0f1214" fill-opacity="1"></use><g><use xlink:href="#b2Rw6Mpylu" opacity="1" fill-opacity="0" stroke="#f4f4f4" stroke-width="1" stroke-opacity="1"></use></g></g><g><use xlink:href="#hkTN1UPpG" opacity="1" fill="#0f1214" fill-opacity="1"></use><g><use xlink:href="#hkTN1UPpG" opacity="1" fill-opacity="0" stroke="#f4f4f4" stroke-width="1" stroke-opacity="1"></use></g></g><g><g><use xlink:href="#g4RGFbOZs" opacity="1" fill-opacity="0" stroke="#020200" stroke-width="0" stroke-opacity="1"></use></g></g><g><g><use xlink:href="#dxMYsawxD" opacity="1" fill-opacity="0" stroke="#020200" stroke-width="0" stroke-opacity="1"></use></g></g><g><g><use xlink:href="#cL29CDUYT" opacity="1" fill-opacity="0" stroke="#020200" stroke-width="0" stroke-opacity="1"></use></g></g></g></g></svg>