<?xml version="1.0" encoding="UTF-8" standalone="no"?>
<!DOCTYPE svg PUBLIC "-//W3C//DTD SVG 1.1//EN" "http://www.w3.org/Graphics/SVG/1.1/DTD/svg11.dtd">
<svg version="1.1" xmlns="http://www.w3.org/2000/svg" xmlns:xlink="http://www.w3.org/1999/xlink" preserveAspectRatio="xMidYMid meet" viewBox="0 0 250 250" width="1000" height="1000"><defs><path d="M150.66 195.8L162.81 211.43L140.38 195.8L150.66 195.8Z" id="cunHBD9zJ"></path><clipPath id="clipa54F77Qyp"><use xlink:href="#cunHBD9zJ" opacity="1"></use></clipPath><path d="M85.94 125L85.94 195.31L62.5 195.31L63.85 15.62L109.81 15.62C109.94 15.62 110.02 15.62 110.05 15.62C125.8 15.62 139.6 26.16 143.76 41.34C144.91 45.58 142.35 36.2 143.76 41.34C147.54 55.19 147.54 69.8 143.76 83.65C142.35 88.8 144.65 80.39 143.42 84.87C139.46 99.34 126.31 109.37 111.31 109.37C110.59 109.37 116.39 109.37 111.31 109.37C109.76 109.37 108.83 111.1 109.68 112.39C116.93 123.45 135.06 151.09 164.06 195.31L140.63 195.31L85.94 125" id="c1P00FnYvG"></path><path d="M86.57 31.25L64.06 15.62" id="b1qChZwbEp"></path><path d="M85.15 196.29C85.22 203.66 85.27 208.27 85.28 210.11C85.29 210.77 84.54 211.17 84 210.78C81.27 208.85 74.47 204.02 63.57 196.29L85.15 196.29Z" id="b24Yki7V8I"></path><path d="M108.37 140.62L108.38 210.94L84.94 210.94L86.29 31.25L132.24 31.25C132.38 31.25 132.46 31.25 132.49 31.25C148.24 31.25 162.04 41.78 166.19 56.97C167.35 61.2 164.79 51.83 166.19 56.97C169.98 70.82 169.98 85.43 166.19 99.28C164.79 104.42 167.08 96.02 165.86 100.49C161.9 114.96 148.75 125 133.75 125C133.03 125 138.82 125 133.74 125C132.2 125 131.28 126.72 132.14 128C139.52 139.06 157.97 166.7 187.5 210.94L163.06 210.94L108.37 140.62" id="b1RxBr0PEQ"></path><path d="" id="b2bXE1tgnH"></path><path d="" id="b8lRxPNJp"></path><path d="" id="aih5fzijs"></path><path d="M109.38 105.47C118.92 105.47 124.89 105.47 127.28 105.47C138.97 105.47 148.44 96 148.44 84.31C148.44 77.61 148.44 79.95 148.44 73.57C148.44 60.98 138.23 50.78 125.65 50.78C123.48 50.78 118.05 50.78 109.37 50.78L109.38 105.47Z" id="e1th0ogPw1"></path><path d="" id="b1XGdugvE3"></path></defs><g><g><g><use xlink:href="#cunHBD9zJ" opacity="1" fill="#ffffff" fill-opacity="1"></use><g clip-path="url(#clipa54F77Qyp)"><use xlink:href="#cunHBD9zJ" opacity="1" fill-opacity="0" stroke="#000000" stroke-width="2" stroke-opacity="1"></use></g></g><g><use xlink:href="#c1P00FnYvG" opacity="1" fill="#000000" fill-opacity="1"></use><g><use xlink:href="#c1P00FnYvG" opacity="1" fill-opacity="0" stroke="#000000" stroke-width="1" stroke-opacity="1"></use></g></g><g><use xlink:href="#b1qChZwbEp" opacity="1" fill="#0f1214" fill-opacity="1"></use><g><use xlink:href="#b1qChZwbEp" opacity="1" fill-opacity="0" stroke="#000000" stroke-width="1" stroke-opacity="1"></use></g></g><g><use xlink:href="#b24Yki7V8I" opacity="1" fill="#ffffff" fill-opacity="1"></use><g><use xlink:href="#b24Yki7V8I" opacity="1" fill-opacity="0" stroke="#000000" stroke-width="1" stroke-opacity="1"></use></g></g><g><use xlink:href="#b1RxBr0PEQ" opacity="1" fill="#ffd000" fill-opacity="1"></use><g><use xlink:href="#b1RxBr0PEQ" opacity="1" fill-opacity="0" stroke="#ffd000" stroke-width="1" stroke-opacity="1"></use></g></g><g><g><use xlink:href="#b2bXE1tgnH" opacity="1" fill-opacity="0" stroke="#020200" stroke-width="1" stroke-opacity="1"></use></g></g><g><g><use xlink:href="#b8lRxPNJp" opacity="1" fill-opacity="0" stroke="#000000" stroke-width="1" stroke-opacity="1"></use></g></g><g><g><use xlink:href="#aih5fzijs" opacity="1" fill-opacity="0" stroke="#000000" stroke-width="1" stroke-opacity="0.03"></use></g></g><g><use xlink:href="#e1th0ogPw1" opacity="1" fill="#0f1214" fill-opacity="1"></use><g><use xlink:href="#e1th0ogPw1" opacity="1" fill-opacity="0" stroke="#0f1214" stroke-width="1" stroke-opacity="1"></use></g></g><g><g><use xlink:href="#b1XGdugvE3" opacity="1" fill-opacity="0" stroke="#000000" stroke-width="1" stroke-opacity="1"></use></g></g></g></g></svg>