<?xml version="1.0" encoding="UTF-8" standalone="no"?>
<!DOCTYPE svg PUBLIC "-//W3C//DTD SVG 1.1//EN" "http://www.w3.org/Graphics/SVG/1.1/DTD/svg11.dtd">
<svg version="1.1" xmlns="http://www.w3.org/2000/svg" xmlns:xlink="http://www.w3.org/1999/xlink" preserveAspectRatio="xMidYMid meet" viewBox="0 0 250 250" width="250" height="250"><defs><path d="M102.94 141L102.94 211.31L79.5 211.31L80.85 31.63L126.81 31.63C126.94 31.63 127.02 31.63 127.05 31.63C142.8 31.63 156.6 42.16 160.76 57.35C161.91 61.58 159.35 52.2 160.76 57.35C164.54 71.19 164.54 85.81 160.76 99.65C159.35 104.8 161.65 96.39 160.42 100.87C156.46 115.34 143.31 125.38 128.31 125.38C127.59 125.38 133.39 125.38 128.31 125.38C126.76 125.38 125.83 127.1 126.68 128.4C133.93 139.45 152.06 167.09 181.06 211.31L157.63 211.31L102.94 141" id="a1fOVQHNj3"></path><path d="M125.38 140.63L125.38 210.94L101.94 210.94L103.29 31.25L149.24 31.25C149.38 31.25 149.46 31.25 149.49 31.25C165.24 31.25 179.04 41.78 183.19 56.97C184.35 61.2 181.79 51.83 183.19 56.97C186.98 70.82 186.98 85.43 183.19 99.28C181.79 104.42 184.08 96.02 182.86 100.49C178.9 114.96 165.75 125 150.75 125C150.03 125 155.83 125 150.75 125C149.2 125 148.27 126.72 149.12 128.02C156.37 139.08 174.5 166.72 203.5 210.94L180.06 210.94L125.38 140.63" id="b17TBBvjLB"></path><path d="M123.37 105.47C132.92 105.47 138.89 105.47 141.28 105.47C152.97 105.47 162.44 96 162.44 84.31C162.44 77.61 162.44 79.95 162.44 73.57C162.44 60.98 152.23 50.78 139.65 50.78C137.48 50.78 132.05 50.78 123.37 50.78L123.37 105.47Z" id="a1LjGVUO1y"></path><path d="" id="g4RGFbOZs"></path><path d="" id="dxMYsawxD"></path><path d="M185.83 210.94L164.06 195.31L185.83 210.94Z" id="cL29CDUYT"></path></defs><g><g><g><use xlink:href="#a1fOVQHNj3" opacity="1" fill="#0f1214" fill-opacity="1"></use><g><use xlink:href="#a1fOVQHNj3" opacity="1" fill-opacity="0" stroke="#f4f4f4" stroke-width="1" stroke-opacity="1"></use></g></g><g><use xlink:href="#b17TBBvjLB" opacity="1" fill="#0f1214" fill-opacity="1"></use><g><use xlink:href="#b17TBBvjLB" opacity="1" fill-opacity="0" stroke="#f4f4f4" stroke-width="1" stroke-opacity="1"></use></g></g><g><use xlink:href="#a1LjGVUO1y" opacity="1" fill="#0f1214" fill-opacity="1"></use><g><use xlink:href="#a1LjGVUO1y" opacity="1" fill-opacity="0" stroke="#f4f4f4" stroke-width="1" stroke-opacity="1"></use></g></g><g><g><use xlink:href="#g4RGFbOZs" opacity="1" fill-opacity="0" stroke="#020200" stroke-width="0" stroke-opacity="1"></use></g></g><g><g><use xlink:href="#dxMYsawxD" opacity="1" fill-opacity="0" stroke="#020200" stroke-width="0" stroke-opacity="1"></use></g></g><g><g><use xlink:href="#cL29CDUYT" opacity="1" fill-opacity="0" stroke="#020200" stroke-width="0" stroke-opacity="1"></use></g></g></g></g></svg>