<?xml version="1.0" encoding="UTF-8" standalone="no"?>
<!DOCTYPE svg PUBLIC "-//W3C//DTD SVG 1.1//EN" "http://www.w3.org/Graphics/SVG/1.1/DTD/svg11.dtd">
<svg version="1.1" xmlns="http://www.w3.org/2000/svg" xmlns:xlink="http://www.w3.org/1999/xlink" preserveAspectRatio="xMidYMid meet" viewBox="0 0 250 250" width="250" height="250"><defs><path d="M85.94 125L85.94 195.31L62.5 195.31L63.85 15.63L109.81 15.63C109.94 15.63 110.02 15.63 110.05 15.63C125.8 15.63 139.6 26.16 143.76 41.35C144.91 45.58 142.35 36.2 143.76 41.35C147.54 55.19 147.54 69.81 143.76 83.65C142.35 88.8 144.65 80.39 143.42 84.87C139.46 99.34 126.31 109.38 111.31 109.38C110.59 109.38 116.39 109.38 111.31 109.38C109.76 109.38 108.83 111.1 109.68 112.4C116.93 123.45 135.06 151.09 164.06 195.31L140.63 195.31L85.94 125" id="g29LJVEEur"></path><path d="M86.57 31.25L64.06 15.63" id="c1Ez1Rqglq"></path><path d="M85.44 196.14C85.21 203.94 85.06 208.81 85.01 210.76C85 210.91 84.84 210.99 84.72 210.91C81.89 208.94 74.82 204.01 63.5 196.14L85.44 196.14Z" id="aijZZHqq0"></path><path d="M151.36 195.71C157.59 203.74 161.48 208.76 163.03 210.77C163.11 210.86 162.99 210.99 162.89 210.92C160.05 208.91 152.95 203.91 141.6 195.89L151.36 195.71Z" id="a1vL7HVUWm"></path><path d="M108.38 140.63L108.38 210.94L84.94 210.94L86.29 31.25L132.24 31.25C132.38 31.25 132.46 31.25 132.49 31.25C148.24 31.25 162.04 41.78 166.19 56.97C167.35 61.2 164.79 51.83 166.19 56.97C169.98 70.82 169.98 85.43 166.19 99.28C164.79 104.42 167.08 96.02 165.86 100.49C161.9 114.96 148.75 125 133.75 125C133.03 125 138.83 125 133.75 125C132.2 125 131.27 126.72 132.12 128.02C139.37 139.08 157.5 166.72 186.5 210.94L163.06 210.94L108.38 140.63" id="e2m4YGZdLS"></path><path d="M109.37 105.47C118.92 105.47 124.89 105.47 127.28 105.47C138.97 105.47 148.44 96 148.44 84.31C148.44 77.61 148.44 79.95 148.44 73.57C148.44 60.98 138.23 50.78 125.65 50.78C123.48 50.78 118.05 50.78 109.37 50.78L109.37 105.47Z" id="d2OHAIX96G"></path><path d="" id="b8YXFKDMK"></path></defs><g><g><g><use xlink:href="#g29LJVEEur" opacity="1" fill="#0f1214" fill-opacity="1"></use><g><use xlink:href="#g29LJVEEur" opacity="1" fill-opacity="0" stroke="#706c6c" stroke-width="1" stroke-opacity="1"></use></g></g><g><use xlink:href="#c1Ez1Rqglq" opacity="1" fill="#0f1214" fill-opacity="1"></use><g><use xlink:href="#c1Ez1Rqglq" opacity="1" fill-opacity="0" stroke="#000000" stroke-width="1" stroke-opacity="1"></use></g></g><g><use xlink:href="#aijZZHqq0" opacity="1" fill="#0f1214" fill-opacity="1"></use><g><use xlink:href="#aijZZHqq0" opacity="1" fill-opacity="0" stroke="#706c6c" stroke-width="1" stroke-opacity="1"></use></g></g><g><use xlink:href="#a1vL7HVUWm" opacity="1" fill="#0f1214" fill-opacity="1"></use><g><use xlink:href="#a1vL7HVUWm" opacity="1" fill-opacity="0" stroke="#706c6c" stroke-width="1" stroke-opacity="1"></use></g></g><g><use xlink:href="#e2m4YGZdLS" opacity="1" fill="#0f1214" fill-opacity="1"></use><g><use xlink:href="#e2m4YGZdLS" opacity="1" fill-opacity="0" stroke="#706c6c" stroke-width="1" stroke-opacity="1"></use></g></g><g><use xlink:href="#d2OHAIX96G" opacity="1" fill="#0f1214" fill-opacity="1"></use><g><use xlink:href="#d2OHAIX96G" opacity="1" fill-opacity="0" stroke="#706c6c" stroke-width="1" stroke-opacity="1"></use></g></g><g><g><use xlink:href="#b8YXFKDMK" opacity="1" fill-opacity="0" stroke="#020200" stroke-width="0" stroke-opacity="1"></use></g></g></g></g></svg>