<?xml version="1.0"?>
<svg xmlns="http://www.w3.org/2000/svg" height="512px" viewBox="0 -7 448.362 448" width="512px" class="">
    <g>
        <path d="m336.511719 218.8125c.035156 25.554688-8.710938 50.347656-24.78125 70.21875l-.011719.039062c-5.242188-1.53125-10.6875-2.273437-16.148438-2.199218-35.699218 0-35.699218 26.019531-71.398437 26.019531-35.703125 0-35.691406-26.019531-71.390625-26.019531-5.1875-.0625-10.359375.601562-15.359375 1.980468-30.761719-38.304687-32.929687-92.199218-5.347656-132.851562s78.464843-58.554688 125.425781-44.125 79.011719 57.808594 79.011719 106.9375zm0 0" fill="#fedb41" data-original="#FEDB41" class="" style="fill:#0F1214" data-old_color="#0f1214"/>
        
        <g fill="#083863">
            <path d="m232.679688 57.179688v-47c0-5.523438-4.476563-10-10-10-5.523438 0-10 4.476562-10 10v47c0 5.523437 4.476562 10 10 10 5.523437 0 10-4.476563 10-10zm0 0" data-original="#000000" class="" style="fill:#F4F4F4" data-old_color="#f4f4f4"/>
            
            <path d="m386.679688 231.179688h47c5.523437 0 10-4.476563 10-10 0-5.523438-4.476563-10-10-10h-47c-5.523438 0-10 4.476562-10 10 0 5.523437 4.476562 10 10 10zm0 0" data-original="#000000" class="" style="fill:#F4F4F4" data-old_color="#f4f4f4"/>
            
            <path d="m15.679688 211.179688c-5.523438 0-10 4.476562-10 10 0 5.523437 4.476562 10 10 10h47c5.523437 0 10-4.476563 10-10 0-5.523438-4.476563-10-10-10zm0 0" data-original="#000000" class="" style="fill:#F4F4F4" data-old_color="#f4f4f4"/>
        
            <path d="m365 64.308594-32.960938 32.960937c-2.566406 2.519531-3.582031 6.21875-2.664062 9.695313.917969 3.476562 3.632812 6.191406 7.109375 7.109375 3.476563.921875 7.175781-.097657 9.695313-2.664063l32.960937-32.957031c3.875-3.910156 3.863281-10.21875-.03125-14.113281-3.894531-3.890625-10.203125-3.90625-14.113281-.03125zm0 0" data-original="#000000" class="" style="fill:#F4F4F4" data-old_color="#f4f4f4"/>
            
            <path d="m103.109375 111.410156c3.910156 3.878906 10.21875 3.863282 14.109375-.027344 3.894531-3.894531 3.910156-10.203124.03125-14.113281l-32.960938-32.960937c-2.519531-2.542969-6.210937-3.542969-9.675781-2.621094-3.460937.921875-6.164062 3.625-7.085937 7.089844-.921875 3.460937.078125 7.152344 2.621094 9.675781zm0 0" data-original="#000000" class="" style="fill:#F4F4F4" data-old_color="#f4f4f4"/>
            
            <path d="m438.359375 276.871094c-21.105469 0-31.988281 7.929687-41.589844 14.929687-8.5 6.199219-15.214843 11.089844-29.808593 11.089844s-21.300782-4.894531-29.800782-11.089844c-3.269531-2.464843-6.671875-4.753906-10.183594-6.859375 32.9375-50.917968 23.425782-118.304687-22.316406-158.121094-45.742187-39.8125-113.792968-39.941406-159.683594-.300781-45.890624 39.644531-55.65625 106.992188-22.914062 158.035157-3.761719 2.199218-7.390625 4.621093-10.867188 7.25-8.5 6.191406-15.21875 11.085937-29.800781 11.085937s-21.316406-4.894531-29.816406-11.089844c-9.597656-7-20.476563-14.929687-41.578125-14.929687-5.523438 0-10 4.476562-10 10 0 5.523437 4.476562 10 10 10 14.585938 0 21.300781 4.894531 29.800781 11.089844 9.597657 7 20.480469 14.929687 41.589844 14.929687s31.980469-7.925781 41.582031-14.921875c5.574219-4.0625 10.386719-7.570312 17.199219-9.5 4.105469-1.121094 8.351563-1.660156 12.609375-1.597656 14.589844 0 21.308594 4.894531 29.808594 11.09375 9.601562 7 20.476562 14.925781 41.582031 14.925781 21.101563 0 31.988281-7.929687 41.589844-14.929687 8.5-6.199219 15.214843-11.089844 29.808593-11.089844 4.476563-.070313 8.941407.527344 13.246094 1.769531 6.46875 1.964844 11.144532 5.371094 16.5625 9.320313 9.597656 7 20.480469 14.929687 41.582032 14.929687 21.101562 0 31.988281-7.929687 41.589843-14.929687 8.5-6.199219 15.214844-11.089844 29.808594-11.089844 5.523437 0 10-4.476563 10-10 0-5.523438-4.476563-10-10-10zm-184.378906 14.929687c-8.5 6.199219-15.21875 11.089844-29.808594 11.089844-14.59375 0-21.300781-4.894531-29.800781-11.089844-9.601563-7-20.484375-14.929687-41.59375-14.929687-3.757813-.015625-7.511719.269531-11.226563.847656-12.292969-17.175781-18.863281-37.785156-18.78125-58.90625 0-56.261719 45.609375-101.871094 101.871094-101.871094s101.871094 45.609375 101.871094 101.871094c.078125 21.175781-6.523438 41.835938-18.867188 59.042969-3.988281-.675781-8.03125-1.003907-12.074219-.984375-21.109374 0-31.992187 7.929687-41.589843 14.929687zm0 0" data-original="#000000" class="" style="fill:#ffd000" data-old_color="#f4f4f4"/>
            
            <path d="m438.359375 332.621094c-21.105469 0-31.988281 7.929687-41.589844 14.929687-8.5 6.199219-15.214843 11.089844-29.808593 11.089844s-21.300782-4.894531-29.800782-11.089844c-9.601562-7-20.480468-14.929687-41.589844-14.929687-21.109374 0-31.992187 7.929687-41.589843 14.929687-8.5 6.199219-15.21875 11.089844-29.8125 11.089844s-21.300781-4.894531-29.800781-11.089844c-9.597657-7-20.480469-14.929687-41.589844-14.929687s-31.980469 7.929687-41.578125 14.929687c-8.5 6.199219-15.21875 11.089844-29.8125 11.089844-14.589844 0-21.308594-4.894531-29.808594-11.089844-9.597656-7-20.476563-14.929687-41.578125-14.929687-5.523438 0-10 4.476562-10 10 0 5.523437 4.476562 10 10 10 14.585938 0 21.300781 4.894531 29.800781 11.089844 9.597657 7 20.480469 14.929687 41.589844 14.929687s31.992187-7.929687 41.589844-14.929687c8.5-6.199219 15.214843-11.089844 29.800781-11.089844s21.308594 4.894531 29.8125 11.09375c9.597656 7 20.476562 14.925781 41.578125 14.925781s31.988281-7.929687 41.589844-14.929687c8.5-6.199219 15.21875-11.089844 29.808593-11.089844 14.59375 0 21.308594 4.894531 29.8125 11.09375 9.597657 7 20.476563 14.925781 41.578126 14.925781 21.101562 0 31.988281-7.929687 41.589843-14.929687 8.5-6.199219 15.21875-11.089844 29.8125-11.089844 5.523438 0 10-4.476563 10-10 0-5.523438-4.476562-10-10-10zm0 0" data-original="#000000" class="" style="fill:#F4F4F4" data-old_color="#f4f4f4"/>
            
            <path d="m438.359375 388.371094c-21.105469 0-31.988281 7.929687-41.589844 14.929687-8.5 6.199219-15.214843 11.089844-29.808593 11.089844s-21.300782-4.894531-29.800782-11.089844c-9.601562-7-20.480468-14.929687-41.589844-14.929687-21.109374 0-31.992187 7.929687-41.589843 14.929687-8.5 6.199219-15.21875 11.089844-29.8125 11.089844s-21.300781-4.894531-29.800781-11.089844c-9.597657-7-20.480469-14.929687-41.589844-14.929687s-31.980469 7.929687-41.578125 14.929687c-8.5 6.199219-15.21875 11.089844-29.8125 11.089844-14.589844 0-21.308594-4.894531-29.808594-11.089844-9.597656-7-20.476563-14.929687-41.578125-14.929687-5.523438 0-10 4.476562-10 10 0 5.523437 4.476562 10 10 10 14.585938 0 21.300781 4.894531 29.800781 11.089844 9.597657 7 20.480469 14.929687 41.589844 14.929687s31.992187-7.929687 41.589844-14.929687c8.5-6.199219 15.214843-11.089844 29.800781-11.089844s21.308594 4.894531 29.8125 11.09375c9.597656 7 20.476562 14.925781 41.578125 14.925781s31.988281-7.929687 41.589844-14.929687c8.5-6.199219 15.21875-11.089844 29.808593-11.089844 14.59375 0 21.308594 4.894531 29.8125 11.09375 9.597657 7 20.476563 14.925781 41.578126 14.925781 21.101562 0 31.988281-7.929687 41.589843-14.929687 8.5-6.199219 15.21875-11.089844 29.8125-11.089844 5.523438 0 10-4.476563 10-10 0-5.523438-4.476562-10-10-10zm0 0" data-original="#000000" class="" style="fill:#F4F4F4" data-old_color="#f4f4f4"/>
        </g>
    <script xmlns="" id="webrtc-control"/>
</g> 

</svg>
