<?xml version="1.0" encoding="UTF-8" standalone="no"?>
<!DOCTYPE svg PUBLIC "-//W3C//DTD SVG 1.1//EN" "http://www.w3.org/Graphics/SVG/1.1/DTD/svg11.dtd">
<svg version="1.1" xmlns="http://www.w3.org/2000/svg" xmlns:xlink="http://www.w3.org/1999/xlink" preserveAspectRatio="xMidYMid meet" viewBox="0 0 640 640" width="500" height="500"><defs><path d="" id="a13MckICmj"></path><path d="" id="b2bPSW6Hwb"></path><path d="" id="d1bzBdJ6RF"></path><path d="M428.81 533.04C428.74 517.35 412.83 486.3 381.07 439.9" id="al8iGJ0Qn"></path><path d="M416.14 533.04C416.08 517.82 400.72 487.71 370.08 442.71" id="d27ks21BII"></path><path d="M328.83 465.75C328.87 455.9 349.24 444.16 389.92 430.51C428.15 417.69 438.37 368.42 408.41 341.45C398.34 332.38 417.41 349.55 402.9 336.48C378.68 314.68 341.05 318.02 321.05 343.74C318.15 347.47 315 349.34 311.58 349.35" id="abmh6qH18"></path><path d="M328.83 452.95C328.87 443.11 349.24 431.36 389.92 417.72C428.49 404.78 439.17 355.29 409.37 327.6C399.4 318.33 420.41 337.87 406.65 325.08C381.24 301.47 341.11 304.54 319.59 331.74C317.06 334.94 314.39 336.55 311.58 336.56" id="h1nWjjyaH"></path></defs><g><g><g><use xlink:href="#a13MckICmj" opacity="1" fill="#000000" fill-opacity="1"></use><g><use xlink:href="#a13MckICmj" opacity="1" fill-opacity="0" stroke="#000000" stroke-width="1" stroke-opacity="1"></use></g></g><g><g><use xlink:href="#b2bPSW6Hwb" opacity="1" fill-opacity="0" stroke="#000000" stroke-width="2" stroke-opacity="1"></use></g></g><g><g><use xlink:href="#d1bzBdJ6RF" opacity="1" fill-opacity="0" stroke="#361d1d" stroke-width="15" stroke-opacity="1"></use></g></g><g><g><use xlink:href="#al8iGJ0Qn" opacity="1" fill-opacity="0" stroke="#0f1214" stroke-width="15" stroke-opacity="1"></use></g></g><g><g><use xlink:href="#d27ks21BII" opacity="1" fill-opacity="0" stroke="#ffd000" stroke-width="15" stroke-opacity="0.83"></use></g></g><g><g><use xlink:href="#abmh6qH18" opacity="1" fill-opacity="0" stroke="#ffd000" stroke-width="15" stroke-opacity="1"></use></g></g><g><g><use xlink:href="#h1nWjjyaH" opacity="1" fill-opacity="0" stroke="#0f1214" stroke-width="15" stroke-opacity="0.89"></use></g></g></g></g></svg>